<mxfile host="app.diagrams.net" modified="2021-11-02T09:04:12.640Z" agent="5.0 (Windows)" etag="hA_RqwGDVo0xjRW1qaUM" version="15.6.5" type="github">
  <diagram id="SrBl-doRjTvy3vszScF3" name="Page-1">
    <mxGraphModel dx="1422" dy="752" grid="1" gridSize="10" guides="1" tooltips="1" connect="1" arrows="1" fold="1" page="1" pageScale="1" pageWidth="827" pageHeight="1169" math="0" shadow="0">
      <root>
        <mxCell id="0" />
        <mxCell id="1" parent="0" />
        <mxCell id="1TkdOeWaVcE49axD7wcY-1" value="" style="shape=mxgraph.signs.transportation.car_2;html=1;pointerEvents=1;fillColor=#000000;strokeColor=none;verticalLabelPosition=bottom;verticalAlign=top;align=center;fontColor=default;" vertex="1" parent="1">
          <mxGeometry x="250" y="415" width="100" height="33" as="geometry" />
        </mxCell>
        <mxCell id="1TkdOeWaVcE49axD7wcY-2" value="" style="shape=mxgraph.signs.transportation.car_3;html=1;pointerEvents=1;fillColor=#000000;strokeColor=none;verticalLabelPosition=bottom;verticalAlign=top;align=center;fontColor=default;" vertex="1" parent="1">
          <mxGeometry x="535.5" y="410" width="99" height="38" as="geometry" />
        </mxCell>
        <mxCell id="1TkdOeWaVcE49axD7wcY-3" value="" style="points=[];aspect=fixed;html=1;align=center;shadow=0;dashed=0;image;image=img/lib/allied_telesis/computer_and_terminals/Personal_Computer_with_Server.svg;fontColor=default;" vertex="1" parent="1">
          <mxGeometry x="414" y="100" width="62.400000000000006" height="62.400000000000006" as="geometry" />
        </mxCell>
        <mxCell id="1TkdOeWaVcE49axD7wcY-4" value="" style="fontColor=#0066CC;verticalAlign=top;verticalLabelPosition=bottom;labelPosition=center;align=center;html=1;outlineConnect=0;fillColor=#CCCCCC;strokeColor=#6881B3;gradientColor=none;gradientDirection=north;strokeWidth=2;shape=mxgraph.networks.satellite;" vertex="1" parent="1">
          <mxGeometry x="550" y="200" width="70" height="60" as="geometry" />
        </mxCell>
        <mxCell id="1TkdOeWaVcE49axD7wcY-5" value="" style="fontColor=#0066CC;verticalAlign=top;verticalLabelPosition=bottom;labelPosition=center;align=center;html=1;outlineConnect=0;fillColor=#CCCCCC;strokeColor=#6881B3;gradientColor=none;gradientDirection=north;strokeWidth=2;shape=mxgraph.networks.satellite;rotation=-105;" vertex="1" parent="1">
          <mxGeometry x="270" y="190" width="60" height="70" as="geometry" />
        </mxCell>
        <mxCell id="1TkdOeWaVcE49axD7wcY-6" value="" style="verticalLabelPosition=bottom;verticalAlign=top;html=1;shape=mxgraph.basic.flash;fontColor=default;fillColor=default;strokeColor=default;rotation=30;" vertex="1" parent="1">
          <mxGeometry x="384" y="170" width="26" height="110" as="geometry" />
        </mxCell>
        <mxCell id="1TkdOeWaVcE49axD7wcY-7" value="" style="endArrow=classic;startArrow=classic;html=1;rounded=0;fontColor=default;strokeColor=default;labelBackgroundColor=default;exitX=0.5;exitY=0;exitDx=0;exitDy=0;exitPerimeter=0;" edge="1" parent="1" source="1TkdOeWaVcE49axD7wcY-2" target="1TkdOeWaVcE49axD7wcY-4">
          <mxGeometry width="50" height="50" relative="1" as="geometry">
            <mxPoint x="530" y="330" as="sourcePoint" />
            <mxPoint x="580" y="280" as="targetPoint" />
          </mxGeometry>
        </mxCell>
        <mxCell id="1TkdOeWaVcE49axD7wcY-8" value="" style="endArrow=classic;startArrow=classic;html=1;rounded=0;fontColor=default;strokeColor=default;labelBackgroundColor=default;exitX=0.5;exitY=0;exitDx=0;exitDy=0;exitPerimeter=0;" edge="1" parent="1" source="1TkdOeWaVcE49axD7wcY-1" target="1TkdOeWaVcE49axD7wcY-5">
          <mxGeometry width="50" height="50" relative="1" as="geometry">
            <mxPoint x="290" y="340" as="sourcePoint" />
            <mxPoint x="340" y="290" as="targetPoint" />
          </mxGeometry>
        </mxCell>
        <mxCell id="1TkdOeWaVcE49axD7wcY-9" value="" style="endArrow=classic;startArrow=classic;html=1;rounded=0;labelBackgroundColor=default;fontColor=default;strokeColor=default;exitX=1;exitY=0.85;exitDx=0;exitDy=0;exitPerimeter=0;" edge="1" parent="1" source="1TkdOeWaVcE49axD7wcY-5" target="1TkdOeWaVcE49axD7wcY-3">
          <mxGeometry width="50" height="50" relative="1" as="geometry">
            <mxPoint x="330" y="180" as="sourcePoint" />
            <mxPoint x="380" y="130" as="targetPoint" />
          </mxGeometry>
        </mxCell>
        <mxCell id="1TkdOeWaVcE49axD7wcY-10" value="" style="endArrow=classic;startArrow=classic;html=1;rounded=0;labelBackgroundColor=default;fontColor=default;strokeColor=default;entryX=0.978;entryY=0.641;entryDx=0;entryDy=0;entryPerimeter=0;" edge="1" parent="1" source="1TkdOeWaVcE49axD7wcY-4" target="1TkdOeWaVcE49axD7wcY-3">
          <mxGeometry width="50" height="50" relative="1" as="geometry">
            <mxPoint x="560" y="170" as="sourcePoint" />
            <mxPoint x="610" y="120" as="targetPoint" />
          </mxGeometry>
        </mxCell>
        <mxCell id="1TkdOeWaVcE49axD7wcY-12" value="" style="verticalLabelPosition=bottom;verticalAlign=top;html=1;shape=mxgraph.basic.flash;fontColor=default;strokeColor=default;fillColor=default;rotation=-40;" vertex="1" parent="1">
          <mxGeometry x="478.51" y="174.43" width="26.4" height="95" as="geometry" />
        </mxCell>
        <mxCell id="1TkdOeWaVcE49axD7wcY-13" value="" style="verticalLabelPosition=bottom;verticalAlign=top;html=1;shape=mxgraph.basic.flash;fontColor=default;strokeColor=default;fillColor=default;rotation=15;" vertex="1" parent="1">
          <mxGeometry x="330" y="269.43" width="30" height="120" as="geometry" />
        </mxCell>
        <mxCell id="1TkdOeWaVcE49axD7wcY-14" value="" style="verticalLabelPosition=bottom;verticalAlign=top;html=1;shape=mxgraph.basic.flash;fontColor=default;strokeColor=default;fillColor=default;rotation=-30;" vertex="1" parent="1">
          <mxGeometry x="528.62" y="269.08" width="29.47" height="140.57" as="geometry" />
        </mxCell>
      </root>
    </mxGraphModel>
  </diagram>
</mxfile>
